<svg width="857" height="857" viewBox="0 0 857 857" fill="none" xmlns="http://www.w3.org/2000/svg">
<g clip-path="url(#clip0_1771_2058)">
<rect width="857" height="857" rx="428.5" fill="white"/>
<path d="M0 428.5V757C0 812.228 44.7715 857 100 857H428.5H757C812.228 857 857 812.228 857 757V428.5V100C857 44.7715 812.228 3.05176e-05 757 3.05176e-05H428.5H100C44.7715 3.05176e-05 0 44.7716 0 100V428.5ZM457.625 206.818C480.723 210.434 495.386 214.585 514.334 222.954C524.243 227.373 527.323 229.248 529.331 232.26C533.616 238.755 531.139 247.258 524.109 250.07C520.293 251.543 518.552 251.141 506.902 245.986C469.877 229.448 432.45 225.029 394.354 232.729C367.974 238.018 347.152 247.124 324.924 262.992C309.256 274.173 296.201 287.095 284.015 303.499C277.119 312.805 275.378 314.613 272.7 315.751C265 319.099 256.43 313.274 256.43 304.771C256.43 301.088 259.577 295.196 266.005 286.693C285.488 260.715 308.788 241.366 337.912 226.703C360.141 215.589 384.043 208.76 411.762 205.546C420.6 204.542 447.849 205.278 457.625 206.818ZM448.251 251.811C482.598 255.828 512.392 268.817 538.236 290.978C556.113 306.311 577.738 335.368 577.805 344.005C577.805 353.044 567.696 359.204 560.264 354.651C557.385 352.91 556.38 351.638 550.89 343.336C538.839 324.99 521.23 307.248 504.157 296.268C497.529 291.983 484.741 285.957 476.104 282.944C435.53 268.817 390.671 274.173 356.191 297.205C340.323 307.85 325.459 323.518 315.014 340.658C306.444 354.852 301.356 367.104 297.138 383.641C295.732 389.332 293.991 394.756 293.322 395.693C289.907 400.38 283.814 402.12 278.86 399.71C271.763 396.296 270.424 390.805 273.504 377.616C281.002 344.809 300.017 312.069 323.718 291.38C341.595 275.646 356.124 267.21 378.285 259.443C387.592 256.23 400.313 253.217 409.217 252.145C418.457 251.007 440.016 250.806 448.251 251.811ZM568.767 258.104C572.114 260.046 584.233 272.031 591.263 280.333C602.377 293.589 613.09 309.457 615.098 315.818C616.036 318.697 616.036 319.768 615.366 321.978C614.362 325.526 611.617 328.673 608.269 330.146C604.855 331.753 602.444 331.753 599.364 330.146C596.084 328.472 594.343 326.463 588.451 317.76C581.22 306.98 573.119 297.071 562.272 285.756C556.983 280.199 552.028 274.575 551.225 273.236C548.078 268.214 550.355 260.849 556.046 257.903C560.732 255.493 564.281 255.493 568.767 258.104ZM455.616 299.28C479.117 304.235 498.131 314.546 514.87 331.418C528.059 344.608 538.973 361.212 538.973 368.108C538.973 374.938 533.817 380.294 527.189 380.294C522.435 380.294 519.155 377.281 511.455 365.966C499.939 349.027 487.285 337.712 471.082 330.079C457.692 323.651 447.582 321.375 433.053 321.375C417.587 321.375 405.133 324.053 392.412 330.146C373.665 339.051 360.676 351.973 351.035 371.188C336.707 399.643 336.439 439.547 350.366 468.672C356.793 482.196 369.715 497.127 381.901 505.094C399.978 517.012 423.88 521.967 446.644 518.552C450.327 518.016 454.143 517.749 455.147 517.949C464.387 520.159 468.471 530.135 463.115 537.232C459.365 542.119 453.875 543.258 433.187 543.258C419.93 543.258 416.248 543.057 409.753 541.852C367.037 533.884 332.958 503.019 320.772 461.24C313.876 437.606 313.809 405.334 320.505 381.633C322.178 375.808 326.53 364.627 329.409 358.936C339.787 338.247 360.007 318.161 380.026 308.654C390.872 303.432 404.665 299.481 417.118 297.941C425.956 296.87 447.983 297.607 455.616 299.28ZM252.48 337.779C255.292 339.586 257.77 344.206 257.77 347.487C257.77 350.366 250.94 371.992 248.53 376.879C246.387 381.164 243.375 383.106 238.755 383.106C234.47 383.106 231.122 381.231 228.846 377.683C226.971 374.737 226.904 374.335 227.172 369.247C227.775 359.605 234.47 340.724 238.085 338.381C242.973 335.1 248.195 334.9 252.48 337.779ZM238.889 408.146C243.843 411.36 244.379 413.369 244.379 429.303C244.446 443.899 244.044 446.176 240.897 448.988C234.805 454.612 226.502 452.804 222.619 444.97C221.012 441.757 220.945 441.154 220.945 428.299C220.945 417.319 221.146 414.574 222.017 412.632C224.896 406.606 233.131 404.397 238.889 408.146ZM287.229 423.278C290.71 425.688 291.916 427.83 292.585 432.852C295.397 452.67 296.87 459.499 301.289 472.22C304.369 481.259 309.457 491.637 315.014 500.475C326.731 519.088 343.269 535.156 362.283 546.538C384.713 559.862 415.578 567.227 439.949 565.084C457.625 563.478 458.16 563.478 461.039 564.95C469.609 569.302 470.547 580.35 462.78 585.572C459.432 587.848 453.473 588.585 435.865 588.987C421.403 589.321 418.323 589.188 409.619 587.915C357.664 580.417 314.68 551.024 288.97 505.63C280.266 490.298 273.437 469.81 270.424 450.461C268.683 439.012 268.549 430.843 269.955 428.165C272.365 423.679 275.512 421.939 281.27 421.872C284.082 421.805 285.555 422.139 287.229 423.278ZM532.143 465.592C534.219 466.663 537.098 469.676 538.236 471.819C538.638 472.622 538.973 474.832 538.973 476.773C538.973 482.063 535.022 489.427 525.247 502.483C518.351 511.656 510.049 520.293 506.366 522.167C499.872 525.448 493.043 523.038 490.03 516.543C487.285 510.585 488.557 507.237 497.127 497.73C504.291 489.762 507.906 484.941 514.2 474.765C519.422 466.329 521.498 464.655 526.72 464.655C528.729 464.655 531.139 465.056 532.143 465.592ZM248.262 475.97C250.606 477.577 252.815 481.527 256.698 490.967C266.674 515.137 281.002 536.562 299.682 555.376C312.47 568.164 324.455 577.337 339.787 586.175C343.47 588.25 347.286 590.727 348.29 591.665C356.258 599.164 351.169 612.621 340.39 612.621C335.234 612.621 310.662 597.891 296.736 586.442C288.903 579.948 273.37 564.214 267.076 556.38C256.43 543.057 246.923 528.126 240.161 513.999C234.939 503.019 229.582 488.959 229.448 485.879C229.314 481.862 231.323 478.246 234.939 475.903C237.617 474.162 238.487 473.961 242.036 474.162C244.915 474.363 246.722 474.832 248.262 475.97ZM571.311 486.348C576.734 488.557 580.35 495.051 579.211 500.274C577.471 507.839 562.473 529.8 550.89 541.785C545.534 547.342 544.195 548.346 541.182 549.283C538.035 550.154 537.232 550.154 534.353 549.283C530.403 548.145 526.653 544.329 525.582 540.379C524.377 535.893 525.515 533.349 531.943 526.252C539.709 517.682 548.413 506.099 553.836 497.127C558.724 489.026 559.661 487.954 563.076 486.481C566.022 485.209 568.566 485.142 571.311 486.348ZM586.308 543.057C591.464 545.534 594.544 551.091 593.539 556.113C592.937 559.46 588.652 565.352 580.751 573.654C572.583 582.291 569.637 584.166 565.285 583.563C561 583.028 558.523 581.488 556.313 577.939C553.568 573.587 553.568 569.102 556.38 565.017C559.929 559.929 574.726 544.061 577.136 542.856C580.216 541.316 582.76 541.316 586.308 543.057ZM483.937 606.662C490.632 609.943 492.373 618.312 487.62 624.606C484.607 628.556 477.978 630.498 457.625 633.51C438.878 636.256 403.593 635.05 396.496 631.435C390.203 628.221 387.726 620.789 390.872 614.898C392.144 612.42 396.229 609.34 398.706 608.872C400.112 608.604 404.866 608.939 409.619 609.675C426.759 612.085 448.05 611.081 467.668 606.93C477.108 604.921 480.255 604.921 483.937 606.662Z" fill="black"/>
</g>
<defs>
<clipPath id="clip0_1771_2058">
<rect width="857" height="857" rx="428.5" fill="white"/>
</clipPath>
</defs>
</svg>
